PathFileType	4	(X/Y/Z)	 s09c0302.trc
DataRate	CameraRate	NumFrames	NumMarkers	Units	OrigDataRate	OrigDataStartFrame	OrigNumFrames
200	200	4	50	mm	200	1	2000
Frame#	Time	racr			lacr			c7			jug			rlel			rdr			llel			ldr			s2			lic			ric			lasi			rasi			rpsi			lpsi			rgt			lgt			rth1			rth2			rth3			rth4			rlfc			rmfc			rsh1			rsh2			rsh3			rsh4			rlmal			rmmal			rcal			rtoe			rmt5			lth1			lth2			lth4			lth3			llfc			lmfc			llmal			lmmal			lcal			lmt5			lsh1			lsh2			lsh3			lsh4			ltoe			SBIKE			LBIKE			RBIKE			
		X1	Y1	Z1	X2	Y2	Z2	X3	Y3	Z3	X4	Y4	Z4	X5	Y5	Z5	X6	Y6	Z6	X7	Y7	Z7	X8	Y8	Z8	X9	Y9	Z9	X10	Y10	Z10	X11	Y11	Z11	X12	Y12	Z12	X13	Y13	Z13	X14	Y14	Z14	X15	Y15	Z15	X16	Y16	Z16	X17	Y17	Z17	X18	Y18	Z18	X19	Y19	Z19	X20	Y20	Z20	X21	Y21	Z21	X22	Y22	Z22	X23	Y23	Z23	X24	Y24	Z24	X25	Y25	Z25	X26	Y26	Z26	X27	Y27	Z27	X28	Y28	Z28	X29	Y29	Z29	X30	Y30	Z30	X31	Y31	Z31	X32	Y32	Z32	X33	Y33	Z33	X34	Y34	Z34	X35	Y35	Z35	X36	Y36	Z36	X37	Y37	Z37	X38	Y38	Z38	X39	Y39	Z39	X40	Y40	Z40	X41	Y41	Z41	X42	Y42	Z42	X43	Y43	Z43	X44	Y44	Z44	X45	Y45	Z45	X46	Y46	Z46	X47	Y47	Z47	X48	Y48	Z48	X49	Y49	Z49	X50	Y50	Z50	
1	0.0050	473.539428	1270.842036	-95.224389	471.560601	1264.381947	-401.717836	420.563047	1299.700589	-247.650188	429.428981	1164.409258	-246.935374	504.244913	1030.567567	0.982309	700.365118	877.042640	-51.817133	468.297881	995.430747	-492.923144	687.665098	875.029027	-437.253622	-60.029936	1151.008630	-229.113356	76.060060	1130.088130	-375.709618	91.873544	1126.440299	-87.239787	104.081487	1065.275028	-356.957955	123.041900	1064.645093	-105.679156	-21.520040	1174.431510	-171.150853	-26.704424	1184.784852	-278.874321	44.532648	988.495912	-37.536690	28.908026	1016.140810	-427.205168	129.558028	876.135655	-41.768269	199.207606	824.566491	-47.589925	231.006747	741.372814	-56.798836	225.463774	843.425002	-65.126111	274.776800	654.852832	-89.096458	258.798074	642.043637	-185.651468	201.778773	580.175276	-61.033749	170.832158	496.805422	-76.429143	103.662142	440.659525	-77.331306	192.266392	486.289941	-108.173998	43.255596	359.415418	-80.477819	46.502377	373.144376	-158.476985	-45.049576	339.361186	-120.616018	214.270512	281.751748	-124.849547	131.081511	281.221352	-60.049643	144.462869	938.869216	-428.459520	227.614100	920.797224	-422.913095	245.156583	952.589930	-411.509277	294.492239	859.876053	-418.393983	369.531013	798.471720	-402.752109	390.644824	790.017167	-305.907332	335.871716	435.245626	-409.562602	349.971315	447.567649	-338.071184	270.901949	388.062985	-372.517369	444.214531	369.060509	-433.682917	357.346784	699.340593	-425.368345	373.368361	614.138581	-416.952023	343.123859	530.811573	-415.376427	399.069181	614.809352	-386.848247	532.727751	400.336696	-365.542247	-65.517521	851.813776	-238.795803	20.980114	84.629583	-442.146141	21.202687	83.897800	-43.712306	
2	0.0100	473.540695	1270.838653	-95.204469	471.553511	1264.386860	-401.700440	420.585447	1299.705833	-247.636089	429.401385	1164.411587	-246.913127	504.247188	1030.540192	0.974657	700.356374	877.048208	-51.795052	468.308709	995.449417	-492.925086	687.686346	875.010628	-437.231871	-60.019275	1151.037410	-229.121308	76.046563	1130.089362	-375.739834	91.881232	1126.445896	-87.227546	104.072735	1065.283184	-356.937244	123.045737	1064.676794	-105.637247	-21.510560	1174.453579	-171.147362	-26.712341	1184.805344	-278.850133	44.509021	988.500583	-37.528069	28.903633	1016.157074	-427.199755	129.542014	876.143108	-41.745531	199.181924	824.603863	-47.586657	231.001456	741.386439	-56.806598	225.452743	843.425637	-65.142932	274.766190	654.857201	-89.092450	258.774480	642.046839	-185.670697	201.774669	580.173798	-61.032888	170.842147	496.800570	-76.425130	103.665837	440.651342	-77.320865	192.266696	486.270578	-108.186895	43.273692	359.368509	-80.482187	46.540510	373.102856	-158.477019	-45.047630	339.366778	-120.598230	214.298091	281.728026	-124.845215	131.096461	281.193992	-60.057344	144.466368	938.902194	-428.445309	227.615515	920.830088	-422.905909	245.165695	952.626825	-411.496964	294.504819	859.920312	-418.395677	369.541676	798.511516	-402.761538	390.617214	790.051878	-305.889959	335.879509	435.270651	-409.556261	349.983719	447.597202	-338.071935	270.896501	388.084779	-372.514424	444.198720	369.076552	-433.680291	357.362944	699.367666	-425.362759	373.388042	614.161304	-416.939543	343.139439	530.824724	-415.379045	399.065928	614.833019	-386.834441	532.732941	400.367934	-365.536088	-65.514786	851.818433	-238.790735	20.992165	84.618307	-442.160165	21.212498	83.873796	-43.697228	
3	0.0150	473.542543	1270.845482	-95.192777	471.555537	1264.383416	-401.678810	420.577557	1299.691376	-247.582700	429.395128	1164.403477	-246.898076	504.257551	1030.543092	0.982773	700.365996	877.052910	-51.793125	468.314844	995.453254	-492.917869	687.703605	875.018556	-437.221022	-60.029121	1151.041413	-229.125340	76.036761	1130.103287	-375.731774	91.869958	1126.462698	-87.218017	104.061443	1065.295985	-356.929472	123.048085	1064.693441	-105.598600	-21.489667	1174.456569	-171.152831	-26.712174	1184.813808	-278.838959	44.501907	988.508771	-37.523526	28.901276	1016.190503	-427.204069	129.533992	876.158663	-41.736256	199.181020	824.603965	-47.588053	230.972645	741.407481	-56.798773	225.446289	843.443179	-65.121706	274.759719	654.872468	-89.082448	258.757705	642.053285	-185.677480	201.757585	580.181255	-61.022878	170.845312	496.794751	-76.412718	103.670323	440.623783	-77.306915	192.260697	486.271310	-108.188934	43.285740	359.334197	-80.456810	46.561338	373.077681	-158.457004	-45.020683	339.328110	-120.569080	214.310489	281.720269	-124.818016	131.103924	281.165145	-60.042597	144.473818	938.942291	-428.448404	227.604046	920.897138	-422.896572	245.152763	952.662636	-411.506063	294.500316	859.957154	-418.416311	369.540533	798.541141	-402.756894	390.636128	790.076000	-305.888581	335.876882	435.302806	-409.559740	349.975816	447.613376	-338.073752	270.890594	388.120901	-372.519404	444.193270	369.108982	-433.703139	357.356772	699.397091	-425.347062	373.374551	614.187152	-416.942340	343.130536	530.852418	-415.376761	399.062466	614.853674	-386.839283	532.726420	400.379595	-365.519942	-65.514786	851.818433	-238.790735	20.999477	84.610036	-442.152814	21.225825	83.860519	-43.686999	
4	0.0200	473.299102	1271.477299	-94.812777	471.538569	1264.387379	-401.677275	420.613377	1299.641076	-247.525519	429.260956	1165.034240	-246.743439	504.264556	1030.531297	0.977206	700.352316	877.012825	-51.822944	468.176290	995.563661	-493.145804	687.573104	875.417480	-437.081628	-60.033039	1151.055800	-229.116743	76.036439	1130.136961	-375.729536	91.657451	1126.230164	-87.162281	104.049427	1065.320448	-356.939084	122.697579	1064.575470	-105.584610	-18.321764	1172.362514	-173.632530	-25.340498	1183.803519	-279.838416	44.817937	988.437552	-37.247651	28.900077	1016.211223	-427.208563	129.391992	875.881031	-41.143750	199.591477	824.193787	-47.454106	230.973654	741.399788	-56.783258	225.450845	843.452279	-65.113070	274.749919	654.865449	-89.089306	258.722328	642.057730	-185.693987	201.768616	580.185961	-61.019916	170.991907	496.677754	-76.177810	103.918265	440.418203	-77.374195	192.305785	486.091508	-108.253253	42.778633	360.072863	-79.915486	47.248207	372.355025	-159.006328	-45.004662	339.306925	-120.562169	214.326895	281.686415	-124.821102	131.124304	281.138838	-60.049034	144.498974	938.732961	-428.491495	227.595541	920.958078	-422.904690	244.917278	953.153590	-411.471467	294.503260	859.985637	-418.393952	369.601712	798.185544	-402.915124	390.636015	790.107554	-305.890807	335.559473	435.891788	-409.881290	350.178471	447.308763	-337.947477	270.891420	388.137851	-372.520689	444.187167	369.143172	-433.693741	357.361899	699.418677	-425.355959	373.348949	614.096968	-417.027548	343.132680	530.891840	-415.378325	399.091786	614.795734	-386.780789	532.730419	400.396111	-365.522910	-65.523436	851.895260	-238.914801	20.992972	84.578834	-442.106898	21.213693	83.876550	-43.685771	
